<svg width="245" height="215" viewBox="0 0 245 215" fill="none" xmlns="http://www.w3.org/2000/svg">
<path d="M1.10744 43.9248L61 2L121 44L181 2L241.944 43.9613C241.972 43.9805 241.973 44.0212 241.946 44.0419L183 90L121 44L59.5635 92.4499C59.5265 92.4791 59.4741 92.4785 59.4377 92.4484L1.10096 44.0837C1.05015 44.0416 1.05336 43.9626 1.10744 43.9248Z" fill="white"/>
<path d="M121 44L61 2L1.10744 43.9248C1.05336 43.9626 1.05015 44.0416 1.10096 44.0837L59.4377 92.4484C59.4741 92.4785 59.5265 92.4791 59.5635 92.4499L121 44ZM121 44L181 2L241.944 43.9613C241.972 43.9805 241.973 44.0212 241.946 44.0419L183 90L121 44Z" stroke="#141414" stroke-width="2"/>
<path d="M60.4985 160.4L59.5 92.5L121 44.5L183 90.5L185.496 160.394C185.498 160.436 185.449 160.461 185.416 160.435L123 112.5L60.579 160.439C60.5464 160.464 60.4991 160.442 60.4985 160.4Z" fill="#C496F0"/>
<path d="M121 44.5L59.5 92.5L60.4985 160.4C60.4991 160.442 60.5464 160.464 60.579 160.439L123 112.5M121 44.5L123 112.5M121 44.5L183 90.5L185.496 160.394C185.498 160.436 185.449 160.461 185.416 160.435L123 112.5" stroke="#141414" stroke-width="2"/>
<path d="M1 110.5V44.1064C1 44.0641 1.04932 44.0409 1.08191 44.0679L59.5 92.5L60 161L123 112.5L186 161L183 90L241.922 44.5605C241.954 44.5354 242.001 44.558 242.002 44.599L243.5 114.5L186 161L125 213L60 161L1 110.5Z" fill="#8854D0"/>
<path d="M60 161L1 110.5V44.1064C1 44.0641 1.04932 44.0409 1.08191 44.0679L59.5 92.5L60 161ZM60 161L123 112.5L186 161M60 161L125 213L186 161M186 161L243.5 114.5L242.002 44.599C242.001 44.558 241.954 44.5354 241.922 44.5605L183 90L186 161Z" stroke="#141414" stroke-width="2"/>
</svg>
